<svg id="Layer_1" data-name="Layer 1" xmlns="http://www.w3.org/2000/svg" viewBox="0 0 185.6 146.72"><defs><style>.cls-1{fill:#fff;}</style></defs><title>hftc logo white vertical</title><path class="cls-1" d="M48.39,136a10.44,10.44,0,0,1,10.75-10.75,9.47,9.47,0,0,1,8.5,4.67l-3.11,1.59a6.26,6.26,0,0,0-5.39-3c-4,0-7,3.14-7,7.51s3,7.5,7,7.5a6.17,6.17,0,0,0,5.39-3l3.11,1.59a9.51,9.51,0,0,1-8.5,4.67A10.44,10.44,0,0,1,48.39,136Z"/><path class="cls-1" d="M78.7,125.23c6.23,0,10.63,4.55,10.63,10.75A10.31,10.31,0,0,1,78.7,146.72c-6.23,0-10.62-4.54-10.62-10.74S72.47,125.23,78.7,125.23Zm0,3.24c-4.2,0-6.88,3.21-6.88,7.51s2.68,7.5,6.88,7.5,6.89-3.24,6.89-7.5S82.88,128.47,78.7,128.47Z"/><path class="cls-1" d="M94.94,131.21v15.14H91.29V125.57H95l10.62,14.74V125.57h3.65v20.78h-3.52Z"/><path class="cls-1" d="M115.81,131.21v15.14h-3.64V125.57h3.73l10.63,14.74V125.57h3.64v20.78h-3.52Z"/><path class="cls-1" d="M133,125.57h14.24v3.21H136.69v5.39h10.37v3.21H136.69v5.76h10.59v3.21H133Z"/><path class="cls-1" d="M149.31,136a10.44,10.44,0,0,1,10.74-10.75,9.48,9.48,0,0,1,8.51,4.67l-3.12,1.59a6.23,6.23,0,0,0-5.39-3c-4,0-7,3.14-7,7.51s3.06,7.5,7,7.5a6.15,6.15,0,0,0,5.39-3l3.12,1.59a9.51,9.51,0,0,1-8.51,4.67A10.44,10.44,0,0,1,149.31,136Z"/><path class="cls-1" d="M175.66,128.78h-6.29v-3.21H185.6v3.21h-6.29v17.57h-3.65Z"/><path class="cls-1" d="M15.17,136.13H1v10.22H0V125.57H1v9.63H15.17v-9.63h1v20.78h-1Z"/><path class="cls-1" d="M18.91,125.57H31.62v.94H19.91v8.69H31.4v.93H19.91v10.22h-1Z"/><path class="cls-1" d="M40.6,126.51h-7v-.94h15v.94h-7v19.84h-1Z"/><path class="cls-1" d="M92.8,0a52.25,52.25,0,1,0,52.25,52.25A52.25,52.25,0,0,0,92.8,0Zm1.29,12.54a39.69,39.69,0,0,1,32,16.2l-12.39,7.15a25.51,25.51,0,0,0-43.51,7.47H55.4A39.76,39.76,0,0,1,94.09,12.54Zm-12,37V47h12.6v2.61H90v7.94H86.77V49.58ZM80.8,51.46v2.39H73.21v3.67H70V47H81.21v2.39h-8v2.1ZM55.28,47h3.21v3.91h7.3V47H69V57.52H65.79v-4h-7.3v4H55.28ZM94.09,92A39.76,39.76,0,0,1,55.28,60.61H70a25.51,25.51,0,0,0,43.69,8l12.39,7.15A39.66,39.66,0,0,1,94.09,92Z"/></svg>